<?xml version="1.0" standalone="no"?>
<!DOCTYPE svg PUBLIC "-//W3C//DTD SVG 20010904//EN"
 "http://www.w3.org/TR/2001/REC-SVG-20010904/DTD/svg10.dtd">
<svg version="1.0" xmlns="http://www.w3.org/2000/svg"
 width="766.000000pt" height="766.000000pt" viewBox="0 0 766.000000 766.000000"
 preserveAspectRatio="xMidYMid meet">
<metadata>
Created by potrace 1.11, written by Peter Selinger 2001-2013
</metadata>
<g transform="translate(0.000000,766.000000) scale(0.100000,-0.100000)"
fill="#000000" stroke="none">
<path d="M3687 7204 c-1 -1 -51 -4 -112 -8 -160 -9 -325 -31 -475 -61 -14 -3
-41 -8 -60 -11 -136 -25 -486 -130 -625 -189 -16 -7 -66 -28 -110 -46 -146
-61 -368 -180 -530 -282 -640 -406 -1164 -1023 -1460 -1722 -88 -207 -184
-501 -214 -656 -6 -30 -13 -65 -16 -79 -3 -14 -8 -40 -11 -59 -3 -18 -8 -43
-10 -55 -17 -88 -33 -218 -50 -411 -7 -84 -7 -396 1 -480 13 -149 16 -192 20
-220 9 -76 17 -129 21 -148 2 -12 6 -40 9 -62 9 -65 55 -263 90 -385 121 -416
295 -781 543 -1140 37 -52 69 -97 72 -100 3 -3 28 -34 55 -70 49 -64 60 -77
160 -189 125 -140 389 -381 402 -367 3 2 5 307 5 675 l0 671 -55 93 c-105 177
-198 381 -267 587 -29 88 -81 291 -94 368 -4 17 -8 44 -11 60 -2 15 -6 41 -9
57 -6 31 -11 80 -22 205 -16 172 -7 454 21 640 23 152 22 149 59 293 112 436
301 806 585 1142 91 107 241 260 331 335 36 30 67 57 70 60 20 22 206 151 300
210 267 165 615 305 905 364 123 25 152 30 235 41 201 28 607 27 776 -1 330
-54 588 -129 815 -237 31 -15 59 -27 62 -27 13 0 245 -135 330 -192 208 -138
465 -365 620 -548 323 -381 563 -902 637 -1380 6 -41 13 -86 16 -100 20 -123
27 -517 11 -655 -4 -38 -10 -90 -12 -114 -3 -24 -7 -51 -9 -60 -3 -9 -8 -36
-11 -61 -38 -269 -183 -668 -347 -951 l-56 -96 1 -692 c0 -380 2 -691 5 -691
12 0 186 153 272 239 395 395 707 898 892 1431 27 79 76 236 83 270 2 8 14 62
28 120 14 58 30 134 36 170 6 36 13 74 15 86 2 12 7 45 11 74 4 29 8 60 10 69
2 9 6 54 10 101 3 47 8 103 11 125 5 48 5 421 0 485 -53 667 -236 1234 -575
1780 -36 58 -69 110 -73 115 -5 6 -37 51 -72 100 -268 379 -665 748 -1081
1007 -460 286 -1025 485 -1535 543 -30 4 -66 8 -80 10 -68 11 -533 27 -543 19z"/>
<path d="M1779 3873 c0 -15 -1 -330 -1 -700 l-1 -671 1019 -1021 c560 -562
1022 -1021 1025 -1021 4 0 466 459 1026 1020 l1018 1021 1 701 2 701 -1022
-1022 -1023 -1022 -1021 1021 c-904 904 -1022 1019 -1023 993z"/>
</g>
</svg>
