<?xml version="1.0" standalone="no"?>
<!DOCTYPE svg PUBLIC "-//W3C//DTD SVG 20010904//EN"
 "http://www.w3.org/TR/2001/REC-SVG-20010904/DTD/svg10.dtd">
<svg version="1.0" xmlns="http://www.w3.org/2000/svg"
 width="3192.000000pt" height="3192.000000pt" viewBox="0 0 3192.000000 3192.000000"
 preserveAspectRatio="xMidYMid meet">
<metadata>
Created by potrace 1.11, written by Peter Selinger 2001-2013
</metadata>
<g transform="translate(0.000000,3192.000000) scale(0.100000,-0.100000)"
fill="#000000" stroke="none">
<path d="M15469 30336 c-2 -2 -85 -7 -184 -10 -99 -4 -207 -9 -240 -11 -185
-11 -255 -15 -295 -19 -25 -3 -85 -7 -135 -11 -49 -3 -101 -8 -115 -10 -14 -2
-56 -6 -95 -10 -71 -6 -109 -10 -200 -20 -27 -4 -70 -8 -95 -10 -25 -3 -63 -7
-85 -10 -52 -7 -99 -13 -155 -20 -78 -11 -310 -44 -350 -50 -14 -2 -43 -7 -65
-10 -22 -3 -103 -17 -180 -30 -77 -13 -153 -27 -170 -29 -16 -3 -55 -10 -85
-16 -30 -6 -64 -13 -75 -14 -11 -2 -67 -13 -125 -25 -58 -12 -118 -24 -135
-27 -45 -8 -285 -62 -405 -91 -58 -13 -112 -26 -120 -28 -8 -2 -69 -18 -135
-35 -66 -17 -128 -32 -137 -35 -174 -41 -628 -176 -925 -273 -225 -75 -564
-193 -608 -213 -11 -4 -90 -35 -175 -68 -304 -117 -660 -268 -980 -417 -117
-54 -711 -352 -805 -404 -33 -18 -105 -58 -160 -88 -531 -293 -1261 -759
-1671 -1067 -22 -16 -53 -39 -68 -50 -65 -47 -389 -295 -481 -369 -136 -108
-388 -317 -400 -330 -5 -6 -37 -33 -70 -61 -33 -27 -65 -54 -71 -60 -6 -5 -39
-35 -73 -65 -105 -92 -240 -216 -405 -370 -141 -132 -549 -542 -676 -679 -174
-186 -180 -193 -250 -272 -36 -40 -70 -77 -75 -83 -6 -6 -39 -45 -75 -86 -35
-41 -69 -80 -74 -86 -6 -6 -26 -29 -44 -52 -19 -23 -43 -51 -54 -64 -11 -13
-37 -43 -57 -68 -20 -25 -42 -52 -50 -60 -8 -8 -77 -94 -154 -190 -77 -96
-147 -184 -156 -195 -50 -61 -359 -480 -429 -582 -7 -10 -28 -40 -48 -68 -197
-275 -578 -878 -756 -1195 -204 -362 -248 -445 -416 -780 -158 -315 -267 -547
-274 -577 -1 -5 -11 -28 -24 -53 -33 -67 -67 -145 -150 -345 -41 -99 -79 -189
-84 -200 -5 -11 -27 -67 -49 -125 -22 -58 -45 -118 -52 -135 -7 -16 -13 -34
-15 -40 -1 -5 -26 -71 -54 -145 -28 -74 -53 -139 -54 -145 -2 -5 -6 -17 -9
-25 -15 -35 -189 -565 -220 -670 -61 -201 -153 -525 -172 -608 -3 -9 -22 -87
-44 -172 -22 -85 -42 -166 -44 -180 -3 -14 -15 -65 -26 -115 -36 -150 -43
-179 -48 -205 -2 -14 -13 -63 -23 -110 -10 -47 -21 -98 -24 -115 -3 -16 -19
-102 -36 -190 -18 -88 -34 -173 -36 -190 -3 -16 -18 -106 -34 -200 -16 -93
-31 -194 -35 -224 -4 -30 -8 -63 -11 -74 -2 -11 -8 -57 -14 -101 -6 -45 -13
-94 -15 -111 -12 -84 -32 -251 -39 -320 -3 -27 -8 -72 -11 -100 -3 -27 -8 -72
-10 -100 -3 -27 -7 -75 -10 -105 -11 -118 -20 -240 -30 -395 -3 -49 -8 -117
-10 -150 -15 -222 -20 -445 -20 -915 0 -478 4 -673 20 -920 2 -41 7 -118 10
-170 3 -52 8 -113 10 -135 3 -22 7 -71 10 -110 8 -109 16 -197 20 -230 2 -16
6 -61 10 -100 3 -38 8 -83 10 -100 3 -16 9 -72 15 -123 6 -52 12 -108 15 -125
2 -18 9 -70 16 -117 16 -123 17 -132 23 -165 4 -30 13 -91 22 -150 21 -148
118 -689 144 -799 10 -45 20 -94 23 -111 3 -16 28 -131 57 -255 47 -203 60
-257 75 -312 3 -10 7 -27 9 -37 8 -34 77 -295 87 -326 5 -16 34 -118 65 -225
181 -628 485 -1457 729 -1985 19 -42 35 -78 35 -80 0 -3 55 -122 122 -265 50
-106 264 -533 319 -638 326 -615 804 -1380 1179 -1887 260 -351 281 -380 514
-670 66 -82 122 -152 126 -155 3 -3 41 -48 85 -100 44 -52 84 -100 90 -106 9
-9 61 -71 112 -130 10 -12 52 -58 93 -104 41 -46 83 -92 93 -104 81 -94 270
-289 532 -551 273 -273 382 -378 579 -556 27 -24 59 -53 71 -64 21 -20 130
-116 193 -170 19 -16 51 -44 71 -62 20 -17 38 -30 40 -27 2 2 5 104 7 226 1
123 5 466 9 763 3 297 8 682 10 855 2 173 6 558 10 855 3 297 8 684 10 860 2
176 6 552 10 835 3 283 8 670 10 859 l4 345 -104 167 c-108 174 -261 436 -335
574 -23 44 -55 103 -70 130 -38 68 -231 454 -268 535 -16 36 -52 115 -80 175
-188 412 -384 932 -527 1400 -20 66 -43 140 -50 165 -14 45 -94 332 -100 360
-2 8 -20 83 -40 165 -20 83 -38 157 -40 165 -2 8 -15 67 -28 130 -30 134 -62
290 -77 375 -5 33 -12 71 -15 85 -12 59 -37 212 -50 308 -3 20 -7 46 -10 57
-2 11 -11 79 -20 150 -9 72 -18 141 -21 155 -2 14 -6 52 -9 85 -3 33 -8 77
-10 98 -11 86 -14 116 -20 187 -3 41 -8 95 -10 120 -2 25 -7 90 -10 145 -4 55
-8 118 -10 140 -22 282 -22 1004 0 1375 7 125 17 260 20 300 7 64 13 134 20
220 3 41 8 86 10 100 2 14 6 50 10 80 8 76 13 113 25 205 6 45 13 99 15 120 3
22 10 65 15 95 5 30 12 75 15 100 7 58 36 226 80 455 6 32 35 171 40 195 45
200 71 310 100 425 20 77 38 147 40 155 5 27 26 104 36 135 5 17 34 115 64
219 164 555 397 1166 650 1701 61 129 207 422 253 505 19 36 48 89 64 118 132
244 307 540 417 707 25 38 48 74 51 80 6 13 201 305 217 325 7 8 50 69 97 135
100 141 244 334 332 445 145 182 374 455 470 560 22 25 90 99 149 165 60 66
221 233 359 370 238 237 284 281 471 450 43 39 83 75 89 80 6 6 56 48 111 95
55 47 102 87 105 90 23 26 508 408 561 442 14 9 32 23 40 30 22 22 341 246
489 344 623 414 1335 796 1993 1070 73 30 161 67 197 82 36 15 67 27 70 27 3
0 10 3 15 6 6 4 28 12 50 19 22 7 45 16 50 20 6 4 19 10 30 13 11 3 58 19 105
37 210 79 571 197 840 275 168 49 544 146 620 161 14 3 63 14 110 24 120 27
119 26 290 60 154 31 233 46 300 56 19 2 46 7 60 10 36 7 65 11 153 24 43 6
88 13 100 15 20 4 141 19 227 30 19 2 71 9 115 14 84 11 183 21 250 27 68 5
167 13 240 19 39 3 95 8 125 10 167 13 450 20 805 19 348 0 498 -4 720 -19 28
-2 97 -6 155 -10 58 -4 119 -8 135 -10 17 -3 68 -7 114 -11 46 -3 92 -7 102
-9 16 -3 61 -8 177 -20 24 -2 56 -6 70 -9 15 -3 52 -8 82 -11 30 -3 66 -7 80
-10 14 -2 43 -6 65 -10 22 -3 54 -7 70 -10 17 -3 48 -7 70 -10 22 -3 51 -7 65
-10 14 -2 41 -7 60 -9 19 -3 46 -8 60 -11 14 -3 52 -10 85 -15 67 -12 122 -23
240 -46 44 -9 89 -18 100 -19 11 -2 43 -8 70 -14 80 -18 266 -61 310 -72 22
-5 49 -11 60 -13 65 -13 550 -148 705 -198 231 -73 346 -111 355 -119 6 -4 15
-8 20 -8 57 -5 749 -278 989 -390 48 -22 90 -41 93 -41 14 0 574 -282 728
-367 418 -230 648 -372 1078 -663 123 -82 569 -410 587 -430 3 -3 25 -21 50
-40 25 -19 47 -37 50 -40 3 -3 50 -41 105 -85 81 -65 377 -317 421 -360 6 -5
58 -53 115 -104 142 -130 580 -566 711 -709 59 -64 118 -128 130 -142 13 -14
66 -74 118 -135 52 -60 97 -112 100 -115 16 -15 202 -244 297 -365 201 -256
441 -590 600 -835 108 -166 413 -666 413 -677 0 -2 17 -35 39 -71 147 -255
407 -783 531 -1077 23 -55 48 -113 56 -130 126 -280 386 -1023 480 -1372 8
-29 21 -79 30 -110 86 -318 177 -714 225 -980 20 -114 30 -169 35 -202 3 -18
8 -43 10 -55 2 -11 7 -41 10 -66 3 -25 8 -53 9 -62 2 -9 11 -68 20 -130 21
-148 23 -164 30 -223 3 -27 8 -66 10 -85 3 -19 7 -57 10 -85 3 -27 7 -68 10
-90 2 -22 7 -76 10 -120 4 -44 8 -95 10 -113 2 -18 7 -74 10 -125 3 -50 8
-114 10 -142 36 -434 20 -1415 -29 -1850 -3 -22 -8 -71 -11 -110 -4 -38 -8
-81 -11 -95 -2 -14 -6 -55 -9 -90 -3 -36 -8 -77 -10 -91 -5 -28 -10 -66 -19
-149 -4 -30 -9 -66 -11 -80 -6 -34 -13 -76 -20 -130 -3 -25 -12 -81 -20 -125
-8 -44 -16 -96 -19 -115 -3 -19 -8 -46 -11 -60 -4 -22 -9 -49 -31 -167 -53
-288 -174 -779 -280 -1138 -8 -27 -16 -57 -18 -65 -31 -107 -137 -433 -146
-445 -4 -5 -10 -23 -14 -40 -11 -45 -206 -561 -246 -650 -5 -11 -41 -94 -80
-185 -210 -487 -455 -959 -751 -1450 l-87 -145 -7 -610 c-3 -335 -8 -761 -10
-945 -3 -184 -7 -540 -10 -790 -2 -250 -7 -657 -10 -905 -3 -247 -8 -605 -10
-795 -10 -944 -17 -1518 -19 -1642 -1 -76 1 -138 5 -138 11 0 384 323 595 515
336 306 860 841 1160 1185 21 25 42 47 45 50 3 3 24 25 45 51 21 25 62 71 89
104 28 32 55 63 60 69 6 6 40 47 75 91 36 44 67 82 70 85 3 3 44 52 90 110 47
58 90 112 97 120 7 8 64 83 127 165 64 83 119 155 123 160 4 6 23 30 41 55
128 174 164 223 207 285 27 39 64 93 84 120 152 215 553 836 584 905 4 8 15
27 25 42 15 23 76 127 134 228 88 152 217 389 279 510 12 25 28 52 34 60 7 8
16 26 20 40 4 14 16 36 25 50 10 14 18 27 18 30 1 3 55 115 120 250 319 653
581 1300 812 2005 45 138 86 264 91 280 5 17 18 60 29 96 11 36 22 74 25 85 2
10 13 51 25 89 42 139 139 503 176 665 57 241 109 472 120 530 3 14 11 57 19
95 8 39 17 86 20 105 3 19 10 53 15 75 5 22 11 58 14 80 4 23 9 52 11 65 3 14
8 39 10 55 13 74 25 143 30 175 3 19 10 60 15 90 5 30 12 78 16 105 3 28 8 59
10 70 2 10 6 37 9 60 3 22 10 72 15 110 5 39 12 89 15 113 3 23 7 60 10 82 3
22 7 59 10 83 3 23 7 58 10 77 2 19 7 63 10 97 3 34 7 70 9 80 2 10 7 61 10
113 4 52 9 109 11 125 2 17 7 68 10 115 3 47 7 110 10 140 24 273 30 503 30
1130 0 571 -5 813 -20 985 -2 28 -7 93 -10 145 -4 52 -8 113 -10 135 -2 22 -7
76 -10 120 -4 44 -8 98 -11 120 -3 22 -7 63 -9 90 -4 53 -12 134 -20 198 -9
70 -14 112 -20 167 -4 30 -8 66 -10 80 -2 14 -7 46 -10 72 -5 45 -21 164 -30
218 -2 14 -7 45 -10 70 -4 25 -9 54 -11 65 -2 11 -7 40 -10 65 -3 25 -7 52 -9
60 -2 8 -7 35 -10 60 -5 37 -20 121 -59 330 -2 14 -16 81 -30 150 -13 69 -27
136 -30 150 -2 14 -9 45 -14 70 -6 25 -18 79 -27 120 -9 41 -26 113 -37 160
-11 47 -22 95 -24 107 -2 12 -8 33 -13 45 -5 13 -9 26 -9 31 -2 37 -128 510
-202 757 -59 199 -241 754 -259 795 -5 11 -24 61 -41 110 -42 119 -132 354
-185 485 -96 234 -137 334 -145 349 -5 9 -24 50 -41 91 -148 349 -439 938
-658 1335 -144 258 -476 815 -533 890 -4 6 -76 114 -160 240 -84 127 -156 235
-161 240 -4 6 -30 42 -57 80 -27 39 -69 97 -92 130 -48 67 -365 489 -390 520
-9 11 -67 83 -129 160 -111 139 -344 418 -405 485 -18 19 -42 48 -55 63 -13
15 -37 42 -54 60 -16 18 -50 55 -74 82 -252 284 -831 866 -1126 1131 -16 14
-48 43 -70 63 -38 35 -176 156 -239 210 -17 14 -48 42 -70 61 -103 89 -207
174 -490 403 -98 79 -428 325 -596 445 -102 72 -189 135 -195 140 -17 14 -508
337 -555 366 -25 15 -74 46 -110 68 -36 23 -78 49 -95 58 -16 10 -90 54 -163
99 -74 45 -136 81 -138 81 -2 0 -33 18 -69 40 -36 22 -67 40 -70 40 -2 0 -27
14 -55 30 -28 17 -106 60 -173 96 -67 37 -151 82 -187 102 -79 43 -502 255
-620 310 -359 169 -624 283 -970 419 -118 46 -231 90 -250 98 -233 93 -953
330 -1185 391 -5 1 -48 14 -95 28 -83 24 -345 94 -379 101 -9 2 -50 12 -91 23
-204 54 -643 150 -900 197 -47 8 -105 19 -130 24 -25 5 -65 12 -90 16 -25 3
-52 8 -60 10 -8 2 -33 6 -55 10 -22 3 -65 10 -95 15 -30 5 -72 11 -92 14 -21
4 -55 8 -75 12 -21 3 -63 9 -93 14 -30 5 -77 11 -105 14 -27 3 -66 8 -85 10
-127 19 -225 30 -345 42 -38 3 -72 7 -75 9 -3 2 -50 6 -105 10 -55 4 -109 9
-120 11 -11 2 -51 6 -90 9 -67 5 -145 11 -265 20 -30 2 -109 7 -175 10 -66 4
-145 9 -175 11 -68 6 -1226 15 -1231 10z"/>
<path d="M7270 13044 l0 -2919 2155 -2160 c4715 -4725 6378 -6384 6389 -6378
6 4 1606 1604 3556 3556 1950 1952 3867 3871 4260 4265 l715 715 1 2911 c0
1601 -1 2914 -3 2918 -2 3 -1922 -1913 -4267 -4258 -2345 -2345 -4266 -4264
-4269 -4264 -3 0 -1925 1920 -4271 4266 l-4266 4266 0 -2918z"/>
</g>
</svg>
